<svg xmlns="http://www.w3.org/2000/svg" xmlns:xlink="http://www.w3.org/1999/xlink" version="1.1" x="0px" y="0px" viewBox="0 0 100 125" style="enable-background:new 0 0 100 100;" xml:space="preserve"><path d="M87.8,83.3L72.3,38.4c-0.3-0.8-1-1.3-1.9-1.3h-7.7h-4.3c2.9-2.4,4.8-6.2,4.7-10.3c-0.2-6.8-5.7-12.4-12.5-12.7  c-7.4-0.3-13.5,5.6-13.5,13c0,4,1.8,7.6,4.7,10h-7.5h-4.6c-0.8,0-1.6,0.5-1.9,1.3L12.2,83.3c-0.5,1.3,0.5,2.7,1.9,2.7h71.8  C87.3,85.9,88.3,84.6,87.8,83.3z M50,21.6c3,0,5.5,2.4,5.5,5.5S53,32.5,50,32.5c-3,0-5.5-2.4-5.5-5.5S47,21.6,50,21.6z"/></svg>